<svg width="44" height="46" viewBox="0 0 44 46" fill="none" xmlns="http://www.w3.org/2000/svg">
<path fill-rule="evenodd" clip-rule="evenodd" d="M14.6544 2.23955C14.6544 1.27882 13.8955 0.5 12.9592 0.5C12.023 0.5 11.264 1.27882 11.264 2.23955V4.07253C6.4311 6.46831 2.81887 10.998 1.56177 16.4974C0.479755 21.2309 0.479755 26.1571 1.56177 30.8906C3.12435 37.7264 8.32569 43.0638 14.9872 44.6673C19.6 45.7776 24.4006 45.7776 29.0134 44.6673C35.6748 43.0638 40.8762 37.7264 42.4388 30.8906C43.5208 26.1571 43.5208 21.2309 42.4388 16.4974C41.1817 10.998 37.5694 6.46831 32.7365 4.07252V2.23955C32.7365 1.27882 31.9775 0.5 31.0413 0.5C30.1051 0.5 29.3461 1.27882 29.3461 2.23955V2.80423C29.2356 2.77536 29.1247 2.74752 29.0134 2.72073C24.4006 1.6104 19.6 1.6104 14.9872 2.72073C14.8758 2.74752 14.7649 2.77536 14.6544 2.80424V2.23955ZM13.8633 23.694C13.8633 22.9254 14.4704 22.3024 15.2194 22.3024H28.781C29.53 22.3024 30.1371 22.9254 30.1371 23.694C30.1371 24.4626 29.53 25.0856 28.781 25.0856H15.2194C14.4704 25.0856 13.8633 24.4626 13.8633 23.694ZM13.8633 30.6522C13.8633 29.8836 14.4704 29.2605 15.2194 29.2605H22.0002C22.7492 29.2605 23.3564 29.8836 23.3564 30.6522C23.3564 31.4208 22.7492 32.0438 22.0002 32.0438H15.2194C14.4704 32.0438 13.8633 31.4208 13.8633 30.6522Z" fill="#ffffff"/>
</svg>
