<svg width="46" height="46" viewBox="0 0 46 46" fill="none" xmlns="http://www.w3.org/2000/svg">
<path fill-rule="evenodd" clip-rule="evenodd" d="M30.4256 1.35925C25.5415 0.213584 20.4585 0.213585 15.5744 1.35925C8.52104 3.01374 3.01374 8.52104 1.35925 15.5744C0.213583 20.4585 0.213583 25.5415 1.35925 30.4257C3.01374 37.479 8.52105 42.9863 15.5744 44.6408C20.4585 45.7864 25.5415 45.7864 30.4256 44.6408C37.479 42.9863 42.9863 37.479 44.6408 30.4256C45.7864 25.5415 45.7864 20.4585 44.6408 15.5744C42.9863 8.52104 37.479 3.01374 30.4256 1.35925ZM22.9998 11.9274C23.8282 11.9274 24.4998 12.5989 24.4998 13.4274V16.9836C24.4998 17.812 23.8282 18.4836 22.9998 18.4836C22.1714 18.4836 21.4998 17.812 21.4998 16.9836V13.4274C21.4998 12.5989 22.1714 11.9274 22.9998 11.9274ZM32.5892 17.4638C33.0034 18.1812 32.7576 19.0986 32.0402 19.5128L28.9606 21.2908C28.2432 21.705 27.3258 21.4592 26.9116 20.7418C26.4974 20.0243 26.7432 19.1069 27.4606 18.6927L30.5402 16.9148C31.2576 16.5005 32.175 16.7464 32.5892 17.4638ZM13.4104 17.4638C13.8246 16.7464 14.742 16.5005 15.4595 16.9148L18.5392 18.6929C19.2567 19.1071 19.5025 20.0245 19.0883 20.7419C18.6741 21.4594 17.7567 21.7052 17.0393 21.291L13.9595 19.5128C13.242 19.0986 12.9962 18.1812 13.4104 17.4638ZM19.0883 25.2586C19.5025 25.976 19.2567 26.8934 18.5392 27.3076L15.4595 29.0857C14.742 29.4999 13.8246 29.2541 13.4104 28.5367C12.9962 27.8192 13.242 26.9018 13.9595 26.4876L17.0393 24.7095C17.7567 24.2953 18.6741 24.5411 19.0883 25.2586ZM26.9116 25.2587C27.3258 24.5413 28.2432 24.2954 28.9606 24.7097L32.0402 26.4876C32.7576 26.9018 33.0034 27.8192 32.5892 28.5367C32.175 29.2541 31.2576 29.4999 30.5402 29.0857L27.4606 27.3077C26.7432 26.8935 26.4974 25.9761 26.9116 25.2587ZM22.9998 27.5172C23.8282 27.5172 24.4998 28.1887 24.4998 29.0172V32.5731C24.4998 33.4015 23.8282 34.0731 22.9998 34.0731C22.1714 34.0731 21.4998 33.4015 21.4998 32.5731V29.0172C21.4998 28.1887 22.1714 27.5172 22.9998 27.5172Z" fill="#ffffff"/>
</svg>
