<svg width="60" height="60" viewBox="0 0 60 60" fill="none" xmlns="http://www.w3.org/2000/svg">
<path fill-rule="evenodd" clip-rule="evenodd" d="M26.146 11.783C28.6894 11.2649 31.3092 11.2649 33.8525 11.783C42.3669 13.5174 48.9158 20.2172 50.6807 28.6308C49.6559 28.1213 48.5033 27.8351 47.2846 27.8351C46.3821 27.8351 45.484 27.9613 44.6157 28.2102L43.9443 28.4026C40.0807 29.5099 37.1614 32.7247 36.3952 36.7158C35.9575 38.9956 35.9575 41.3395 36.3952 43.6193C37.1614 47.6104 40.0807 50.8252 43.9443 51.9325L44.6157 52.1249C45.484 52.3738 46.3821 52.5 47.2846 52.5C51.5453 52.5 54.9993 49.0026 54.9992 44.6884L54.9993 32.3119L54.9385 31.4149C54.1554 19.8533 45.8313 10.2507 34.6111 7.96506C31.567 7.34498 28.4315 7.34498 25.3874 7.96506C14.1672 10.2507 5.84317 19.8533 5.06002 31.4149L4.99927 32.3119L4.99928 44.6884C4.99926 49.0026 8.45323 52.5 12.7139 52.5C13.6164 52.5 14.5145 52.3738 15.3828 52.1249L16.0542 51.9325C19.9178 50.8252 22.8371 47.6104 23.6033 43.6193C24.041 41.3395 24.041 38.9956 23.6033 36.7158C22.8371 32.7247 19.9178 29.5099 16.0542 28.4026L15.3828 28.2102C14.5145 27.9613 13.6164 27.8351 12.7139 27.8351C11.4953 27.8351 10.3426 28.1212 9.31787 28.6308C11.0828 20.2172 17.6317 13.5174 26.146 11.783Z" fill="#ffffff"/>
</svg>