<svg width="46" height="46" viewBox="0 0 46 46" fill="none" xmlns="http://www.w3.org/2000/svg">
<path d="M23 10.8846C22.0441 10.8846 21.2692 10.1097 21.2692 9.15385V2.23077C21.2692 1.27489 22.0441 0.5 23 0.5C23.9559 0.5 24.7308 1.27489 24.7308 2.23077V9.15385C24.7308 10.1097 23.9559 10.8846 23 10.8846Z" fill="#ffffff"/>
<path d="M23 32.2308C28.098 32.2308 32.2308 28.098 32.2308 23C32.2308 17.902 28.098 13.7692 23 13.7692C17.902 13.7692 13.7692 17.902 13.7692 23C13.7692 28.098 17.902 32.2308 23 32.2308Z" fill="#ffffff"/>
<path d="M35.1154 23C35.1154 22.0441 35.8903 21.2692 36.8462 21.2692H43.7692C44.7251 21.2692 45.5 22.0441 45.5 23C45.5 23.9559 44.7251 24.7308 43.7692 24.7308H36.8462C35.8903 24.7308 35.1154 23.9559 35.1154 23Z" fill="#ffffff"/>
<path d="M2.23077 21.2692C1.27489 21.2692 0.5 22.0441 0.5 23C0.5 23.9559 1.27489 24.7308 2.23077 24.7308H9.15385C10.1097 24.7308 10.8846 23.9559 10.8846 23C10.8846 22.0441 10.1097 21.2692 9.15385 21.2692H2.23077Z" fill="#ffffff"/>
<path d="M21.2692 43.7692C21.2692 44.7251 22.0441 45.5 23 45.5C23.9559 45.5 24.7308 44.7251 24.7308 43.7692V36.8462C24.7308 35.8903 23.9559 35.1154 23 35.1154C22.0441 35.1154 21.2692 35.8903 21.2692 36.8462V43.7692Z" fill="#ffffff"/>
</svg>
